#N canvas 236 129 1130 640 12;
#X declare -path lib -path score -path dl4;
#X obj 673 130 sequencer-section 1;
#X floatatom 787 97 3 0 0 0 - sequencer-label sequencer-nowhere 0;
#X floatatom 699 98 3 0 0 0 section: sequencer-section-number sequencer-nowhere 0;
#X obj 746 33 bng 60 250 50 0 sequencer-step empty empty 17 7 0 10 #fcfcfc #000000 #000000;
#N canvas 290 132 756 466 misc 0;
#X obj 404 61 r print;
#X obj 404 86 print;
#X obj 497 60 r #;
#X text 50 157 section start (or zero to stop all);
#X obj 179 236 t b f;
#X obj 128 329 s reset;
#X msg 62 284 \; mute 1;
#X obj 338 156 loadbang;
#X obj 338 207 delay 100;
#X msg 338 229 0;
#X obj 208 281 delay 90;
#X obj 128 280 delay 70;
#X obj 128 305 bng 15 250 50 0 empty empty empty 0 -6 0 8 #fcfcfc #000000 #000000;
#X obj 179 183 r sequencer-start;
#X obj 306 282 delay 100;
#X obj 472 157 r sequencer-stop;
#X msg 472 181 \; sequencer-start 0;
#X msg 208 307 \; pd dsp 1;
#X obj 350 181 s init;
#X obj 307 317 f;
#X msg 307 347 \; sequencer-section-number \$1 \; mute 0;
#X obj 68 22 declare -path lib -path score -path dl4;
#X connect 0 0 1 0;
#X connect 4 0 6 0;
#X connect 4 0 10 0;
#X connect 4 0 11 0;
#X connect 4 0 14 0;
#X connect 4 1 19 1;
#X connect 7 0 8 0;
#X connect 7 0 18 0;
#X connect 8 0 9 0;
#X connect 9 0 4 0;
#X connect 10 0 17 0;
#X connect 11 0 12 0;
#X connect 12 0 5 0;
#X connect 13 0 4 0;
#X connect 14 0 19 0;
#X connect 15 0 16 0;
#X connect 19 0 20 0;
#X restore 490 130 pd misc;
#X obj 325 27 vu 10 120 mic1-vu empty -1 -8 0 10 #404040 #000000 0 0;
#X floatatom 323 155 3 0 0 0 - mic1-vu-int - 0;
#X obj 399 27 vu 10 120 out1-vu empty -1 -8 0 10 #404040 #000000 0 0;
#X floatatom 397 155 3 0 0 0 - out1-vu-int - 0;
#X obj 425 27 vu 10 120 out2-vu empty -1 -8 0 10 #404040 #000000 0 0;
#X floatatom 423 155 3 0 0 0 - out2-vu-int - 0;
#X text 335 178 IN;
#X text 407 176 OUT;
#X floatatom 248 150 3 0 100 0 - main-out-set main-out 0;
#X floatatom 189 149 3 0 100 0 - mic-trim-set mic-trim 0;
#X floatatom 151 39 3 0 100 0 gain test-tone-set test-tone 0;
#X obj 243 13 bng 20 250 50 0 mute empty mute -30 10 0 12 #fcfcfc #000000 #000000;
#N canvas 857 274 655 459 out 0;
#X obj 38 326 dac~ 1 2;
#X obj 51 197 *~;
#X obj 111 199 *~;
#X obj 57 141 inlet~;
#X obj 240 29 r init;
#X obj 456 72 r mute;
#X msg 515 176 0;
#X obj 535 100 f;
#X obj 535 127 moses 1;
#X obj 454 98 f;
#X obj 454 120 == 0;
#X obj 456 144 sel 1 0;
#X obj 51 81 catch~ output1;
#X obj 113 111 catch~ output2;
#X obj 455 177 f 50;
#X obj 109 325 send-vu out1-vu;
#X obj 118 299 send-vu out2-vu;
#X msg 240 54 \; main-out 50;
#X obj 239 102 setctl main-out;
#X obj 454 221 s main-out;
#X obj 535 73 r main-out;
#X obj 187 152 amp4~ main-out;
#N canvas 704 512 1019 461 out-to-file 0;
#X obj 489 255 symbol;
#X obj 373 121 sel 0;
#X msg 373 365 stop;
#X obj 86 204 r soundfile-out-choose;
#X obj 87 396 s soundfile-out-name-set;
#X msg 87 370 set \$1;
#X obj 104 343 r soundfile-out-usedname;
#X obj 412 179 timer;
#X obj 412 204 / 1000;
#X obj 412 229 mod 1e+06;
#X obj 373 431 writesf~ 2;
#X obj 411 400 inlet~;
#X obj 466 402 inlet~;
#X obj 704 54 setctl soundfile-out-rec;
#X obj 86 229 savepanel;
#X obj 102 319 s soundfile-out-basename;
#X obj 489 230 r soundfile-out-basename;
#X obj 420 121 b;
#X msg 412 366 open \$1 \, start;
#X obj 412 258 pack 0 s;
#X obj 73 85 loadbang;
#X obj 373 18 r soundfile-out-rec;
#X obj 726 162 sel 0;
#X obj 726 128 r soundfile-out-rec;
#X msg 762 215 1;
#X msg 715 212 0;
#X obj 773 162 t b b;
#X msg 790 269 0;
#X obj 709 301 f;
#X obj 745 303 + 1;
#X obj 709 326 s soundfile-out-current;
#X obj 439 337 s soundfile-out-name-set;
#X obj 105 289 s soundfile-out-chosen;
#X obj 373 86 spigot;
#X obj 472 86 spigot 1;
#X obj 471 111 b;
#X obj 471 139 del 500;
#X msg 471 164 \; soundfile-out-rec 0;
#X obj 105 263 b;
#X obj 536 16 r soundfile-out-chosen;
#X msg 537 42 1;
#X msg 574 42 0;
#X obj 709 257 metro 1000;
#X msg 411 285 symbol \$2-\$1.wav;
#X msg 439 311 set \$1;
#X msg 73 110 \; soundfile-out-usedname symbol none;
#X connect 0 0 19 1;
#X connect 1 0 2 0;
#X connect 1 1 17 0;
#X connect 2 0 10 0;
#X connect 3 0 14 0;
#X connect 5 0 4 0;
#X connect 6 0 5 0;
#X connect 7 0 8 0;
#X connect 8 0 9 0;
#X connect 9 0 19 0;
#X connect 11 0 10 0;
#X connect 12 0 10 1;
#X connect 14 0 5 0;
#X connect 14 0 15 0;
#X connect 14 0 38 0;
#X connect 16 0 0 0;
#X connect 17 0 7 1;
#X connect 18 0 10 0;
#X connect 19 0 43 0;
#X connect 20 0 45 0;
#X connect 21 0 33 0;
#X connect 21 0 34 0;
#X connect 22 0 25 0;
#X connect 22 1 26 0;
#X connect 23 0 22 0;
#X connect 24 0 42 0;
#X connect 25 0 42 0;
#X connect 26 0 24 0;
#X connect 26 1 27 0;
#X connect 27 0 28 1;
#X connect 28 0 29 0;
#X connect 28 0 30 0;
#X connect 29 0 28 1;
#X connect 33 0 1 0;
#X connect 34 0 35 0;
#X connect 35 0 36 0;
#X connect 36 0 37 0;
#X connect 38 0 32 0;
#X connect 39 0 40 0;
#X connect 39 0 41 0;
#X connect 40 0 33 1;
#X connect 41 0 34 1;
#X connect 42 0 28 0;
#X connect 43 0 18 0;
#X connect 43 0 44 0;
#X connect 44 0 31 0;
#X restore 133 262 pd out-to-file;
#X obj 126 151 inlet~;
#X connect 1 0 0 0;
#X connect 1 0 15 0;
#X connect 1 0 22 0;
#X connect 2 0 0 1;
#X connect 2 0 16 0;
#X connect 2 0 22 1;
#X connect 3 0 1 0;
#X connect 4 0 17 0;
#X connect 5 0 9 0;
#X connect 6 0 19 0;
#X connect 7 0 8 0;
#X connect 7 0 9 1;
#X connect 8 1 14 1;
#X connect 9 0 10 0;
#X connect 10 0 11 0;
#X connect 11 0 14 0;
#X connect 11 1 6 0;
#X connect 12 0 1 0;
#X connect 13 0 2 0;
#X connect 14 0 19 0;
#X connect 20 0 7 0;
#X connect 21 0 2 1;
#X connect 21 0 1 1;
#X connect 23 0 2 0;
#X restore 24 407 pd out;
#N canvas 833 258 679 276 DSP 0;
#X obj 47 44 inlet~;
#X obj 46 133 outlet~;
#X obj 66 75 amp4~ direct;
#X obj 46 104 *~;
#X obj 53 172 genctl direct;
#X text 321 59 (put more DSP here);
#X connect 0 0 3 0;
#X connect 2 0 3 1;
#X connect 3 0 1 0;
#X restore 22 201 pd DSP;
#X floatatom 64 145 3 0 100 0 direct direct-set direct 0;
#X floatatom 151 59 3 0 140 0 pitch test-tone-pit-set test-tone-pit 0;
#X obj 152 83 tgl 15 0 test-tone-noise test-tone-noise-set empty 17 7 0 10 #fcfcfc #000000 #000000 0 1;
#X obj 15 35 bng 40 250 50 0 sequencer-stop empty empty 42 20 0 15 #fcfcfc #000000 #000000;
#X obj 189 42 vsl 15 101 0 100 0 0 mic-trim mic-trim-set empty 0 -9 0 10 #fcfcfc #000000 #000000 0 1;
#X text 187 168 mic trim, f 4;
#X text 201 83 -;
#X text 181 83 -;
#X obj 248 43 vsl 15 101 0 100 0 0 main-out main-out-set empty 0 -9 0 10 #fcfcfc #000000 #000000 0 1;
#X text 260 84 -;
#X text 240 84 -;
#X text 248 168 main out, f 4;
#X text 102 17 test tone;
#X text 109 79 noise;
#X obj 350 27 vu 10 120 mic2-vu empty -1 -8 0 10 #404040 #000000 0 0;
#X floatatom 348 155 3 0 0 0 - mic2-vu-int - 0;
#N canvas 840 441 672 430 input 0;
#X obj 42 47 hip~ 5;
#X obj 43 16 adc~ 1;
#X obj 413 295 setctl mic-trim;
#X obj 419 214 r init;
#X msg 419 239 \; mic-trim 50;
#X obj 43 90 *~;
#X obj 240 50 amp4~ mic-trim;
#X obj 43 211 +~;
#X obj 44 319 outlet~;
#X obj 75 254 send~ input1;
#X obj 55 282 send-vu mic1-vu;
#X obj 173 43 hip~ 5;
#X obj 173 92 *~;
#X obj 174 207 +~;
#X obj 174 12 adc~ 2;
#X obj 192 256 send~ input2;
#X obj 175 286 send-vu mic2-vu;
#N canvas 2130 351 1024 648 soundfile+testtone 0;
#X obj 41 101 osc~ 440;
#X obj 51 417 outlet~;
#X obj 264 270 switch~;
#X obj 765 112 setctl test-tone;
#X obj 126 246 r test-tone;
#X obj 126 271 f;
#X obj 53 309 *~ 0;
#X obj 125 296 expr $f1*$f1*$f1*$f1/100000000;
#X obj 41 75 mtof;
#X obj 765 134 setctl test-tone-pit;
#X obj 765 156 setctl test-tone-noise;
#X obj 41 50 r test-tone-pit;
#X obj 83 219 r test-tone-noise;
#X obj 140 83 noise~;
#X obj 139 119 bp~ 440 0.7;
#X obj 62 151 -~;
#X obj 62 176 *~ 0;
#X obj 765 1 loadbang;
#X obj 522 31 r soundfile-in-name;
#X obj 522 56 symbol;
#X msg 532 84 set \$1;
#X obj 532 109 s soundfile-in-name-set;
#X obj 427 160 symbol;
#X obj 221 173 f;
#X obj 264 198 t b f;
#X obj 221 198 != 0;
#X obj 263 238 ||;
#X obj 263 173 != 0;
#X obj 244 262 tgl 15 0 empty empty empty 17 7 0 10 #fcfcfc #000000 #000000 0 1;
#X obj 373 52 sel 0;
#X msg 371 226 stop;
#X obj 764 185 setctl soundfile-in-gain;
#X msg 765 26 \; test-tone 0 \; test-tone-pit 69 \; test-tone-noise 0 \; soundfile-in-gain 50;
#X obj 764 209 setctl soundfile-in-play;
#X obj 760 237 setctl soundfile-in-onset;
#X obj 68 477 r soundfile-in-choose;
#X obj 68 502 openpanel;
#X obj 68 527 s soundfile-in-name;
#X obj 410 261 readsf~ 2;
#X obj 511 300 b;
#X obj 511 325 del 500;
#X obj 499 265 amp4~ soundfile-in-gain;
#X obj 409 302 *~;
#X obj 439 302 *~;
#X obj 135 418 outlet~;
#X obj 373 18 r soundfile-in-play;
#X msg 511 383 \; soundfile-in-play 0;
#X obj 221 148 r soundfile-in-play;
#X obj 319 454 metro 1000;
#X obj 432 189 pack s 0;
#X obj 607 178 samplerate~;
#X obj 564 151 r soundfile-in-onset;
#X obj 565 176 t f b;
#X obj 565 201 *;
#X obj 322 392 t b b;
#X msg 317 427 1;
#X msg 437 344 0;
#X obj 439 535 s soundfile-in-current;
#X obj 365 425 f;
#X obj 320 493 f;
#X obj 355 496 + 1;
#X obj 452 431 r soundfile-in-onset;
#X obj 758 265 setctl soundfile-in-repeat;
#X obj 703 348 r soundfile-in-repeat;
#X obj 618 439 spigot;
#X obj 835 513 * 1000;
#X obj 703 373 f;
#X obj 618 465 timer;
#X obj 403 95 s \$0-start-sf;
#X obj 326 365 r \$0-start-sf;
#X obj 420 52 t b b;
#X obj 667 464 r \$0-start-sf;
#X obj 618 490 moses 50;
#X obj 618 515 b;
#X obj 618 540 del 1000;
#X obj 691 569 spigot;
#X msg 691 600 \; soundfile-in-play 1;
#X obj 580 302 r \$0-start-sf;
#X msg 580 327 stop;
#X obj 784 541 del;
#X obj 784 513 spigot;
#X obj 822 473 r \$0-start-sf;
#X obj 695 517 b;
#X obj 695 542 del 50;
#X msg 410 227 open \$1 \$2 \, start;
#X obj 833 423 &&;
#X obj 834 371 r soundfile-in-play;
#X obj 834 396 t b f;
#X connect 0 0 15 1;
#X connect 0 0 6 0;
#X connect 4 0 5 0;
#X connect 5 0 7 0;
#X connect 5 0 27 0;
#X connect 6 0 1 0;
#X connect 6 0 44 0;
#X connect 7 0 6 1;
#X connect 8 0 0 0;
#X connect 8 0 14 1;
#X connect 11 0 8 0;
#X connect 12 0 16 1;
#X connect 13 0 14 0;
#X connect 14 0 15 0;
#X connect 15 0 16 0;
#X connect 16 0 6 0;
#X connect 17 0 32 0;
#X connect 18 0 19 0;
#X connect 19 0 20 0;
#X connect 19 0 22 1;
#X connect 20 0 21 0;
#X connect 22 0 49 0;
#X connect 23 0 25 0;
#X connect 24 0 26 0;
#X connect 24 1 26 1;
#X connect 25 0 26 0;
#X connect 26 0 2 0;
#X connect 26 0 28 0;
#X connect 27 0 24 0;
#X connect 29 0 30 0;
#X connect 29 1 70 0;
#X connect 30 0 38 0;
#X connect 35 0 36 0;
#X connect 36 0 37 0;
#X connect 38 0 42 0;
#X connect 38 1 43 0;
#X connect 38 2 39 0;
#X connect 39 0 40 0;
#X connect 39 0 56 0;
#X connect 39 0 64 0;
#X connect 40 0 46 0;
#X connect 41 0 42 1;
#X connect 41 0 43 1;
#X connect 42 0 1 0;
#X connect 43 0 44 0;
#X connect 45 0 29 0;
#X connect 47 0 23 0;
#X connect 48 0 59 0;
#X connect 49 0 84 0;
#X connect 50 0 53 1;
#X connect 51 0 52 0;
#X connect 52 0 53 0;
#X connect 52 1 50 0;
#X connect 53 0 49 1;
#X connect 54 0 55 0;
#X connect 54 1 58 0;
#X connect 55 0 48 0;
#X connect 56 0 57 0;
#X connect 56 0 48 0;
#X connect 58 0 59 1;
#X connect 59 0 60 0;
#X connect 59 0 57 0;
#X connect 60 0 59 1;
#X connect 61 0 58 1;
#X connect 63 0 66 0;
#X connect 64 0 67 1;
#X connect 65 0 79 1;
#X connect 66 0 65 0;
#X connect 66 0 64 1;
#X connect 66 0 80 1;
#X connect 66 0 85 0;
#X connect 67 0 72 0;
#X connect 69 0 54 0;
#X connect 70 0 22 0;
#X connect 70 1 68 0;
#X connect 71 0 67 0;
#X connect 72 0 73 0;
#X connect 72 1 82 0;
#X connect 73 0 74 0;
#X connect 74 0 75 0;
#X connect 75 0 76 0;
#X connect 77 0 78 0;
#X connect 78 0 40 0;
#X connect 79 0 75 0;
#X connect 80 0 79 0;
#X connect 81 0 80 0;
#X connect 82 0 83 0;
#X connect 83 0 75 0;
#X connect 84 0 38 0;
#X connect 85 0 75 1;
#X connect 86 0 87 0;
#X connect 87 0 85 0;
#X connect 87 1 85 1;
#X restore 324 162 pd soundfile+testtone;
#X obj 51 164 catch~ add-input1;
#X obj 186 164 catch~ add-input2;
#X connect 0 0 5 0;
#X connect 1 0 0 0;
#X connect 3 0 4 0;
#X connect 5 0 7 0;
#X connect 6 0 5 1;
#X connect 6 0 12 1;
#X connect 7 0 8 0;
#X connect 7 0 9 0;
#X connect 7 0 10 0;
#X connect 11 0 12 0;
#X connect 12 0 13 0;
#X connect 13 0 15 0;
#X connect 13 0 16 0;
#X connect 14 0 11 0;
#X connect 17 0 7 1;
#X connect 17 1 13 1;
#X connect 18 0 7 0;
#X connect 19 0 13 0;
#X restore 22 173 pd input;
#X text 13 12 RESET;
#N canvas 56 151 843 620 snapshot 0;
#X obj 421 282 textfile;
#X obj 374 230 until;
#X msg 422 231 rewind;
#X obj 374 253 t b b;
#X msg 485 256 write /tmp/foo.txt;
#X obj 203 85 bng 15 250 50 0 empty empty empty 17 7 0 10 #fcfcfc #000000 #000000;
#X obj 362 143 s ctl-preset-start;
#X msg 472 229 read param-list.txt cr;
#X msg 604 107 \; grab-all-init bang;
#X msg 441 177 \; grab-all-target snapshot-reply;
#X obj 420 308 symbol;
#X obj 421 332 t b s;
#X msg 467 332 symbol grab-all-get-\$1;
#X obj 442 357 send;
#X obj 205 343 r snapshot-reply;
#X obj 359 414 spigot;
#X msg 430 392 0;
#X msg 399 391 1;
#X obj 205 246 s grab-all-rest;
#X obj 360 465 print not-in-file;
#X obj 604 53 r post-reset;
#X obj 243 373 list trim;
#X obj 360 439 spigot;
#X obj 408 415 r grab-debug-order;
#X obj 202 58 r grab-doit;
#X obj 617 81 r grab-reset;
#X obj 408 438 tgl 15 0 empty empty empty 17 7 0 10 #fcfcfc #000000 #000000 0 1;
#X obj 245 403 print -n;
#X obj 217 188 bng 15 250 50 0 empty empty empty 17 7 0 10 #fcfcfc #000000 #000000;
#X msg 304 31 ------------------------------------;
#X obj 313 65 print -n;
#X obj 584 484 r grab-everything;
#X obj 582 511 t b b;
#X obj 582 541 s grab-doit;
#X obj 634 512 s grab-setallchanged;
#X obj 200 109 t b b b;
#X obj 44 60 r reset;
#X obj 44 105 s grab-all-init;
#X obj 44 83 del 1;
#X msg 68 452 click;
#X obj 118 415 r grab-restart;
#X obj 332 489 f;
#X obj 363 491 + 1;
#X msg 329 519 list 0 \$1 ------------------;
#X msg 288 449 0;
#X msg 118 451 clear;
#X obj 261 157 t b b b b b;
#X obj 317 549 text set snapshot-text 1e+09;
#X obj 66 485 text define snapshot-text;
#X connect 0 0 10 0;
#X connect 0 1 1 1;
#X connect 1 0 3 0;
#X connect 2 0 0 0;
#X connect 3 0 0 0;
#X connect 4 0 0 0;
#X connect 5 0 35 0;
#X connect 7 0 0 0;
#X connect 10 0 11 0;
#X connect 11 0 13 0;
#X connect 11 1 12 0;
#X connect 12 0 13 1;
#X connect 14 0 21 0;
#X connect 14 0 47 0;
#X connect 15 0 22 0;
#X connect 16 0 15 1;
#X connect 17 0 15 1;
#X connect 20 0 8 0;
#X connect 21 0 15 0;
#X connect 21 0 27 0;
#X connect 22 0 19 0;
#X connect 23 0 26 0;
#X connect 24 0 5 0;
#X connect 25 0 8 0;
#X connect 26 0 22 1;
#X connect 28 0 18 0;
#X connect 29 0 30 0;
#X connect 31 0 32 0;
#X connect 32 0 33 0;
#X connect 32 1 34 0;
#X connect 35 0 39 0;
#X connect 35 1 46 0;
#X connect 35 2 7 0;
#X connect 36 0 38 0;
#X connect 38 0 37 0;
#X connect 39 0 48 0;
#X connect 40 0 44 0;
#X connect 40 0 45 0;
#X connect 41 0 42 0;
#X connect 41 0 43 0;
#X connect 42 0 41 1;
#X connect 43 0 47 0;
#X connect 44 0 41 1;
#X connect 45 0 48 0;
#X connect 46 0 18 0;
#X connect 46 1 17 0;
#X connect 46 1 29 0;
#X connect 46 2 1 0;
#X connect 46 3 16 0;
#X connect 46 3 2 0;
#X connect 46 3 6 0;
#X connect 46 3 9 0;
#X connect 46 3 29 0;
#X connect 46 4 41 0;
#X restore 491 105 pd snapshot;
#X obj 503 40 bng 15 250 50 0 grab-reset empty empty 17 7 0 10 #fcfcfc #000000 #000000;
#X obj 493 22 bng 15 250 50 0 grab-doit empty empty 17 7 0 10 #fcfcfc #000000 #000000;
#X text 513 19 DO GRAB;
#X obj 503 58 bng 15 250 50 0 grab-everything empty empty 17 7 0 10 #fcfcfc #000000 #000000;
#X obj 492 79 bng 15 250 50 0 grab-restart empty empty 17 7 0 10 #fcfcfc #000000 #000000;
#X text 523 38 mark start;
#X text 523 56 grab all;
#N canvas 304 164 654 409 soundfile-in-out 0;
#X symbolatom 38 138 80 0 0 0 - soundfile-in-name-set soundfile-in-name 0;
#X floatatom 291 99 7 0 10000 0 - soundfile-in-onset-set soundfile-in-onset 0;
#X floatatom 520 98 7 0 10000 0 - soundfile-in-current - 0;
#X text 275 64 starting location (sec), f 14;
#X obj 177 96 tgl 25 0 soundfile-in-play soundfile-in-play-set empty 17 7 0 10 #fcfcfc #000000 #000000 0 1;
#X text 33 115 filename;
#X obj 129 96 bng 25 250 50 0 soundfile-in-choose empty empty 17 7 0 10 #fcfcfc #000000 #000000;
#X text 115 72 choose;
#X text 174 74 PLAY;
#X text 498 72 play location;
#X floatatom 227 98 3 0 100 0 - soundfile-in-gain-set soundfile-in-gain 0;
#X text 221 74 gain;
#X floatatom 426 96 3 0 999 0 - soundfile-in-repeat-set soundfile-in-repeat 0;
#X text 399 59 repeat after (sec), f 11;
#X text 142 23 ------------ read a soundfile -------------;
#X symbolatom 42 329 80 0 0 0 - soundfile-out-name-set soundfile-out-name 0;
#X floatatom 433 293 7 0 10000 0 - soundfile-out-current - 0;
#X obj 190 287 tgl 25 0 soundfile-out-rec soundfile-out-rec-set empty 17 7 0 10 #fcfcfc #000000 #000000 0 1;
#X text 37 306 filename;
#X obj 133 287 bng 25 250 50 0 soundfile-out-choose empty empty 17 7 0 10 #fcfcfc #000000 #000000;
#X text 119 263 choose;
#X text 146 214 ------------ save to a soundfile -------------;
#X text 180 263 RECORD;
#X text 429 267 duration;
#X restore 16 111 pd soundfile-in-out;
#X obj 696 32 bng 25 250 50 0 sequencer-start-1 empty empty 17 7 0 10 #fcfcfc #000000 #000000;
#X text 687 11 START;
#X text 744 11 NEXT STEP;
#X text 736 97 event:;
#X text 511 77 clear;
#X obj 68 243 dl4;
#N canvas 625 234 879 537 dl4-parameters 1;
#X obj 436 388 outlet;
#X floatatom 126 41 3 -20 20 0 delgain delgain-set delgain 0;
#X floatatom 126 67 3 1 4 0 scale scale-set scale 0;
#X floatatom 126 94 3 1 8 0 step step-set step 0;
#X obj 158 43 genctl delgain;
#X obj 158 68 genctl scale;
#X obj 158 94 genctl step;
#X floatatom 125 119 3 25 100 0 delfact delfact-set delfact 0;
#X floatatom 125 145 3 0 100 0 lfowidth lfowidth-set lfowidth 0;
#X floatatom 125 172 3 0 100 0 lforate lforate-set lforate 0;
#X obj 157 121 genctl delfact;
#X obj 157 146 genctl lfowidth;
#X obj 157 172 genctl lforate;
#X floatatom 125 198 3 0 100 0 lfoshape lforate-set lforate 0;
#X obj 157 198 genctl lfoshape;
#X floatatom 125 223 3 0 100 0 drywet drywet-set drywet 0;
#X floatatom 125 249 3 0 99 0 fb fb-set fb 0;
#X obj 157 223 genctl drywet;
#X obj 157 249 genctl fb;
#X obj 590 46 / 100;
#X msg 590 70 delfact \$1;
#X obj 590 126 / 100;
#X msg 590 150 lfowidth \$1;
#X obj 591 200 / 100;
#X msg 591 224 lforate \$1;
#X obj 591 273 / 100;
#X msg 591 297 lfoshape \$1;
#X obj 285 153 / 100;
#X msg 285 177 drywet \$1;
#X obj 285 229 / 100;
#X msg 285 253 fb \$1;
#X obj 282 101 r drywet;
#X obj 285 205 r fb;
#X obj 591 249 r lfoshape;
#X obj 591 176 r lforate;
#X obj 590 102 r lfowidth;
#X obj 590 22 r delfact;
#X obj 503 76 r step;
#X obj 432 75 r scale;
#X obj 346 77 r delgain;
#X msg 346 101 delgain \$1;
#X msg 432 99 scale \$1;
#X msg 503 100 step \$1;
#X obj 283 126 line 0 10;
#X connect 19 0 20 0;
#X connect 20 0 0 0;
#X connect 21 0 22 0;
#X connect 22 0 0 0;
#X connect 23 0 24 0;
#X connect 24 0 0 0;
#X connect 25 0 26 0;
#X connect 26 0 0 0;
#X connect 27 0 28 0;
#X connect 28 0 0 0;
#X connect 29 0 30 0;
#X connect 30 0 0 0;
#X connect 31 0 43 0;
#X connect 32 0 29 0;
#X connect 33 0 25 0;
#X connect 34 0 23 0;
#X connect 35 0 21 0;
#X connect 36 0 19 0;
#X connect 37 0 42 0;
#X connect 38 0 41 0;
#X connect 39 0 40 0;
#X connect 40 0 0 0;
#X connect 41 0 0 0;
#X connect 42 0 0 0;
#X connect 43 0 27 0;
#X restore 861 209 pd dl4-parameters;
#X connect 18 0 51 0;
#X connect 18 0 17 0;
#X connect 35 0 18 0;
#X connect 51 0 17 1;
#X connect 52 0 51 1;
