#N canvas 221 74 956 637 12;
#X obj 215 16 inlet~;
#X obj 215 46 phasor~;
#X obj 206 353 outlet~;
#X obj 471 183 expr~ (1-$v1) * ($v1 <= 1);
#X obj 501 221 expr~ ($v1 * ($v1 <= 1)) + (2-$v1) * ($v1 > 1);
#X obj 562 284 expr~ ($v1-1) * ($v1 > 1);
#X obj 511 78 inlet~;
#X obj 174 321 *~;
#X obj 210 321 *~;
#X obj 247 321 *~;
#X obj 216 126 cos~;
#X obj 270 191 clip~ -1 1;
#X obj 511 106 clip~ 0 2;
#X obj 757 88 expr~ $v1 < 0;
#X obj 757 112 *~ 2;
#X obj 757 136 -~ 1;
#X obj 216 87 +~ 0.25;
#X obj 23 155 expr~ $v1 * ($v1 < 0.5) + (1 - $v1) * ($v1 >= 0.5), f 26;
#X obj 23 194 *~ -4;
#X obj 23 218 +~ 1;
#X obj 23 130 wrap~;
#X obj 270 220 expr~ 1.5*$v1 - 0.5*($v1*$v1*$v1), f 18;
#X obj 676 437 expr~ if($v1 < 0 \, -1 \, 1) * (1 - exp(-abs($v1))), f 25;
#X obj 270 163 *~ 20;
#X connect 0 0 1 0;
#X connect 1 0 16 0;
#X connect 3 0 7 1;
#X connect 4 0 8 1;
#X connect 5 0 9 1;
#X connect 6 0 12 0;
#X connect 7 0 2 0;
#X connect 8 0 2 0;
#X connect 9 0 2 0;
#X connect 10 0 8 0;
#X connect 10 0 23 0;
#X connect 11 0 21 0;
#X connect 12 0 3 0;
#X connect 12 0 4 0;
#X connect 12 0 5 0;
#X connect 13 0 14 0;
#X connect 14 0 15 0;
#X connect 16 0 10 0;
#X connect 16 0 20 0;
#X connect 17 0 18 0;
#X connect 18 0 19 0;
#X connect 19 0 7 0;
#X connect 20 0 17 0;
#X connect 21 0 9 0;
#X connect 23 0 11 0;
