#N canvas 643 52 450 383 12;
#X obj 95 16 inlet~;
#X obj 98 317 outlet~;
#X obj 164 18 inlet;
#X obj 164 103 t b f;
#X msg 164 127 2;
#X obj 164 151 pow;
#X obj 164 175 - 1;
#X floatatom 164 199 5 0 0 0 - - - 0;
#X obj 208 224 swap 1;
#X obj 208 248 /;
#X obj 98 288 expr~ round($v1*$f2) * $f3;
#X obj 164 76 clip 1 16;
#X obj 259 18 loadbang;
#X obj 259 43 float \$1;
#X connect 0 0 10 0;
#X connect 2 0 11 0;
#X connect 3 0 4 0;
#X connect 3 1 5 1;
#X connect 4 0 5 0;
#X connect 5 0 6 0;
#X connect 6 0 7 0;
#X connect 7 0 8 0;
#X connect 7 0 10 1;
#X connect 8 0 9 0;
#X connect 8 1 9 1;
#X connect 9 0 10 2;
#X connect 10 0 1 0;
#X connect 11 0 3 0;
#X connect 12 0 13 0;
#X connect 13 0 11 0;
